<svg width="40" height="40" viewBox="0 0 40 40" fill="none" xmlns="http://www.w3.org/2000/svg">
<path d="M38.9113 28.84C38.7638 27.9113 38.455 27.0788 38.0125 26.335L38.03 26.3675C37.7938 25.98 37.4025 25.7063 36.945 25.6313L36.9363 25.63L25.725 23.85C25.655 23.8388 25.575 23.8338 25.4938 23.8338C25.0588 23.8338 24.6638 24.0063 24.375 24.2875C23.6188 25.0488 23.0075 25.955 22.5888 26.9625L22.5688 27.0175C18.1863 25.0513 14.7538 21.6188 12.8375 17.3563L12.7888 17.235C13.85 16.7963 14.7563 16.1863 15.5163 15.4288C15.7988 15.1463 15.9738 14.755 15.9738 14.3225C15.9738 14.2363 15.9663 14.1513 15.9525 14.0675L15.9538 14.0763L14.175 2.86375C14.0988 2.39625 13.8238 2.00375 13.4413 1.7725L13.4338 1.76875C12.7513 1.36 11.9525 1.05875 11.1013 0.913755L11.06 0.907505C10.6238 0.810005 10.1225 0.755005 9.60877 0.755005C9.57877 0.755005 9.55002 0.755005 9.52002 0.755005H9.52502H9.51252C4.79752 0.790005 0.98627 4.60625 0.95752 9.31875V9.32125C0.97627 25.6175 14.1813 38.8225 30.4763 38.8413C35.1963 38.8138 39.0163 34.9963 39.045 30.28V30.2775C39.0463 30.2413 39.0463 30.1988 39.0463 30.155C39.0463 29.6888 38.9975 29.2338 38.9038 28.795L38.9113 28.8375V28.84ZM30.4788 35.72C15.9075 35.7038 4.10002 23.8963 4.08377 9.32625C4.10752 6.3275 6.53502 3.9025 9.53252 3.8825C9.54502 3.8825 9.56252 3.8825 9.57752 3.8825C9.88877 3.8825 10.1925 3.91625 10.485 3.98125L10.4575 3.97625C10.7488 4.02501 11.005 4.09251 11.2513 4.18001L11.22 4.17L12.7325 13.7125C12.0875 14.1863 11.3138 14.5263 10.4738 14.6725L10.4413 14.6775C9.70252 14.8113 9.15002 15.45 9.15002 16.2175C9.15002 16.4 9.18127 16.575 9.23877 16.7375L9.23502 16.7263C11.515 23.2475 16.5588 28.2913 22.9238 30.5238L23.08 30.5713C23.2313 30.625 23.4063 30.655 23.5888 30.655C23.8813 30.655 24.1538 30.5763 24.3888 30.4375L24.3813 30.4413C24.77 30.2113 25.0463 29.8263 25.1275 29.3738L25.1288 29.3638C25.28 28.4913 25.62 27.7175 26.1038 27.0563L26.0925 27.0713L35.6338 28.585C35.7188 28.8263 35.795 29.1163 35.8463 29.4138L35.8513 29.4463C35.8975 29.6675 35.9225 29.9225 35.9225 30.1825C35.9225 30.2125 35.9225 30.2425 35.9213 30.2738V30.2688C35.905 33.2688 33.4788 35.6975 30.4813 35.7175H30.4788V35.72ZM22.5788 7.67C22.5438 7.6675 22.5038 7.665 22.4625 7.665C21.6375 7.665 20.9663 8.3225 20.945 9.1425V9.145C20.9438 9.17 20.9425 9.19875 20.9425 9.2275C20.9425 10.06 21.5913 10.74 22.4113 10.79H22.415C26.4975 11.0175 29.7225 14.3838 29.7225 18.5025C29.7225 18.7588 29.71 19.0113 29.6863 19.2613L29.6888 19.23C29.6888 20.0925 30.3888 20.7925 31.2513 20.7925C32.1138 20.7925 32.8138 20.0925 32.8138 19.23C32.83 19.01 32.8388 18.7538 32.8388 18.495C32.8388 12.7125 28.3113 7.9875 22.6075 7.67126L22.5788 7.67ZM22.4225 4.06C22.96 4.0875 35.5763 4.885 35.5763 19.23C35.5763 20.0925 36.2763 20.7925 37.1388 20.7925C38.0013 20.7925 38.7013 20.0925 38.7013 19.23C38.72 18.9313 38.73 18.5813 38.73 18.23C38.73 9.07375 31.6288 1.575 22.6325 0.943755L22.5775 0.941255C22.5425 0.938755 22.5013 0.936255 22.46 0.936255C21.6325 0.936255 20.9588 1.5975 20.94 2.42125C20.9388 2.445 20.9375 2.47375 20.9375 2.50125C20.9375 3.33625 21.5925 4.0175 22.4175 4.06H22.4225Z" fill="white"/>
</svg>
