<svg width="50" height="50" viewBox="0 0 50 50" fill="none" xmlns="http://www.w3.org/2000/svg">
<path d="M34.5834 29.1667C34.1668 28.9583 31.4584 27.7083 31.0417 27.5C30.6251 27.2917 30.2084 27.2917 29.7917 27.7083C29.3751 28.125 28.5417 29.375 28.1251 29.7917C27.9167 30.2083 27.5001 30.2083 27.0834 30C25.6251 29.375 24.1667 28.5417 22.9167 27.5C21.8751 26.4583 20.8334 25.2083 20.0001 23.9583C19.7917 23.5417 20.0001 23.125 20.2084 22.9167C20.4167 22.7083 20.6251 22.2917 21.0417 22.0833C21.2501 21.875 21.4584 21.4583 21.4584 21.25C21.6667 21.0417 21.6667 20.625 21.4584 20.4167C21.2501 20.2083 20.2084 17.7083 19.7917 16.6667C19.5834 15.2083 19.1667 15.2083 18.7501 15.2083C18.5417 15.2083 18.1251 15.2083 17.7084 15.2083C17.2917 15.2083 16.6667 15.625 16.4584 15.8333C15.2084 17.0833 14.5834 18.5417 14.5834 20.2083C14.7917 22.0833 15.4167 23.9583 16.6667 25.625C18.9584 28.9583 21.8751 31.6667 25.4167 33.3333C26.4584 33.75 27.2917 34.1667 28.3334 34.375C29.3751 34.7917 30.4167 34.7917 31.6667 34.5833C33.1251 34.375 34.3751 33.3333 35.2084 32.0833C35.6251 31.25 35.6251 30.4167 35.4167 29.5833C35.4167 29.5833 35.0001 29.375 34.5834 29.1667ZM39.7918 10.2083C31.6667 2.08334 18.5417 2.08334 10.4167 10.2083C3.75008 16.875 2.50008 27.0833 7.08342 35.2083L4.16675 45.8333L15.2084 42.9167C18.3334 44.5833 21.6667 45.4167 25.0001 45.4167C36.4584 45.4167 45.6251 36.25 45.6251 24.7917C45.8334 19.375 43.5418 14.1667 39.7918 10.2083ZM34.1667 39.375C31.4584 41.0417 28.3334 42.0833 25.0001 42.0833C21.8751 42.0833 18.9584 41.25 16.2501 39.7917L15.6251 39.375L9.16675 41.0417L10.8334 34.7917L10.4167 34.1667C5.41675 25.8333 7.91675 15.4167 16.0417 10.2083C24.1667 5.00001 34.5834 7.70834 39.5834 15.625C44.5834 23.75 42.2918 34.375 34.1667 39.375Z" fill="#FEFEFE"/>
</svg>
